<?xml version="1.0" encoding="UTF-8" standalone="no"?>
<svg
   xmlns:dc="http://purl.org/dc/elements/1.1/"
   xmlns:cc="http://creativecommons.org/ns#"
   xmlns:rdf="http://www.w3.org/1999/02/22-rdf-syntax-ns#"
   xmlns:svg="http://www.w3.org/2000/svg"
   xmlns="http://www.w3.org/2000/svg"
   xmlns:sodipodi="http://sodipodi.sourceforge.net/DTD/sodipodi-0.dtd"
   xmlns:inkscape="http://www.inkscape.org/namespaces/inkscape"
   data-name="Layer 1"
   width="855.41839"
   height="610.77534"
   viewBox="0 0 855.41839 610.77534"
   version="1.1"
   id="svg116"
   sodipodi:docname="undraw_data_processing_yrrv.svg"
   inkscape:version="1.0.2 (e86c870879, 2021-01-15, custom)">
  <metadata
     id="metadata122">
    <rdf:RDF>
      <cc:Work
         rdf:about="">
        <dc:format>image/svg+xml</dc:format>
        <dc:type
           rdf:resource="http://purl.org/dc/dcmitype/StillImage" />
      </cc:Work>
    </rdf:RDF>
  </metadata>
  <defs
     id="defs120" />
  <sodipodi:namedview
     pagecolor="#ffffff"
     bordercolor="#666666"
     borderopacity="1"
     objecttolerance="10"
     gridtolerance="10"
     guidetolerance="10"
     inkscape:pageopacity="0"
     inkscape:pageshadow="2"
     inkscape:window-width="1920"
     inkscape:window-height="1014"
     id="namedview118"
     showgrid="false"
     inkscape:zoom="1.2033885"
     inkscape:cx="427.7092"
     inkscape:cy="305.00957"
     inkscape:window-x="-8"
     inkscape:window-y="-8"
     inkscape:window-maximized="1"
     inkscape:current-layer="svg116" />
  <ellipse
     cx="174.37621"
     cy="205.33507"
     fill="#e6e6e6"
     id="circle2"
     rx="10.555132"
     ry="9.8303709"
     style="stroke-width:0.747313" />
  <ellipse
     cx="206.0416"
     cy="205.33507"
     fill="#e6e6e6"
     id="circle4"
     rx="10.555132"
     ry="9.8303709"
     style="stroke-width:0.747313" />
  <ellipse
     cx="237.70699"
     cy="205.33507"
     fill="#e6e6e6"
     id="circle6"
     rx="10.555132"
     ry="9.8303709"
     style="stroke-width:0.747313" />
  <ellipse
     cx="269.37238"
     cy="205.33507"
     fill="#e6e6e6"
     id="circle8"
     rx="10.555132"
     ry="9.8303709"
     style="stroke-width:0.747313" />
  <ellipse
     cx="301.03775"
     cy="205.33507"
     fill="#e6e6e6"
     id="circle10"
     rx="10.555132"
     ry="9.8303709"
     style="stroke-width:0.747313" />
  <ellipse
     cx="332.70312"
     cy="205.33507"
     fill="#e6e6e6"
     id="circle12"
     rx="10.555132"
     ry="9.8303709"
     style="stroke-width:0.747313" />
  <ellipse
     cx="364.36853"
     cy="205.33507"
     fill="#e6e6e6"
     id="circle14"
     rx="10.555132"
     ry="9.8303709"
     style="stroke-width:0.747313" />
  <path
     d="M 388.75938,217.30619 H 149.98535 a 4.3004438,4.0051567 0 0 1 -4.29539,-4.00044 v -15.94124 a 4.3004361,4.0051495 0 0 1 4.29539,-4.00045 h 238.77403 a 4.3004438,4.0051567 0 0 1 4.29538,4.00045 v 15.94124 a 4.3004516,4.0051639 0 0 1 -4.29538,4.00044 z M 149.98535,194.96425 a 2.5800526,2.402895 0 0 0 -2.57723,2.40027 v 15.94123 a 2.5800526,2.402895 0 0 0 2.57723,2.40026 h 238.77403 a 2.5800448,2.4028878 0 0 0 2.57722,-2.40026 v -15.94124 a 2.5800448,2.4028878 0 0 0 -2.57722,-2.40027 z"
     fill="#e6e6e6"
     id="path16"
     style="stroke-width:0.747313" />
  <path
     d="m 201.08449,127.77751 a 2.47075,2.3010976 0 0 1 2.46793,2.29846 v 49.80799 a 2.47075,2.3010976 0 0 1 -2.46793,2.29846 h -52.38781 a 2.47075,2.3010976 0 0 1 -2.46792,-2.29846 v -49.80795 a 2.47075,2.3010976 0 0 1 2.46792,-2.29846 h 52.38781 m 0,-2.29851 h -52.38781 a 4.9359245,4.5970025 0 0 0 -4.93592,4.59701 v 49.80791 a 4.9359245,4.5970025 0 0 0 4.93592,4.597 h 52.38781 a 4.9359322,4.5970097 0 0 0 4.93593,-4.597 v -49.80795 a 4.9359322,4.5970097 0 0 0 -4.93593,-4.597 z"
     fill="#e6e6e6"
     id="path18"
     style="stroke-width:0.747313" />
  <path
     d="m 192.91313,140.86985 h -34.95276 a 1.233985,1.1492542 0 1 1 0,-2.29846 h 34.95276 a 1.233985,1.1492542 0 1 1 0,2.29846 z"
     fill="#6c63ff"
     id="path20"
     style="stroke-width:0.747313" />
  <path
     d="m 192.91313,149.00832 h -34.95276 a 1.233985,1.1492542 0 1 1 0,-2.29846 h 34.95276 a 1.233985,1.1492542 0 1 1 0,2.29846 z"
     fill="#6c63ff"
     id="path22"
     style="stroke-width:0.747313" />
  <path
     d="m 192.91313,157.14623 h -34.95276 a 1.233985,1.1492542 0 1 1 0,-2.29846 h 34.95276 a 1.233985,1.1492542 0 1 1 0,2.29846 z"
     fill="#6c63ff"
     id="path24"
     style="stroke-width:0.747313" />
  <path
     d="m 192.91313,165.2847 h -34.95276 a 1.233985,1.1492542 0 1 1 0,-2.29847 h 34.95276 a 1.233985,1.1492542 0 1 1 0,2.29847 z"
     fill="#6c63ff"
     id="path26"
     style="stroke-width:0.747313" />
  <path
     d="m 192.91313,173.42318 h -34.95276 a 1.2339859,1.149255 0 1 1 0,-2.29851 h 34.95276 a 1.2339859,1.149255 0 0 1 0,2.29851 z"
     fill="#6c63ff"
     id="path28"
     style="stroke-width:0.747313" />
  <path
     d="m 380.0118,127.77751 a 2.47075,2.3010976 0 0 1 2.46792,2.29846 v 49.80799 a 2.47075,2.3010976 0 0 1 -2.46792,2.29846 h -52.38781 a 2.47075,2.3010976 0 0 1 -2.46793,-2.29846 v -49.80795 a 2.47075,2.3010976 0 0 1 2.46793,-2.29846 h 52.38781 m 0,-2.29851 h -52.38781 a 4.9359245,4.5970025 0 0 0 -4.93593,4.59701 v 49.80791 a 4.9359245,4.5970025 0 0 0 4.93593,4.597 h 52.38781 a 4.9359245,4.5970025 0 0 0 4.93592,-4.597 v -49.80795 a 4.9359245,4.5970025 0 0 0 -4.93592,-4.597 z"
     fill="#e6e6e6"
     id="path30"
     style="stroke-width:0.747313" />
  <path
     d="M 371.84044,140.86985 H 336.8877 a 1.233985,1.1492542 0 1 1 0,-2.29846 h 34.95277 a 1.233985,1.1492542 0 0 1 0,2.29846 z"
     fill="#6c63ff"
     id="path32"
     style="stroke-width:0.747313" />
  <path
     d="M 371.84044,149.00832 H 336.8877 a 1.233985,1.1492542 0 1 1 0,-2.29846 h 34.95277 a 1.233985,1.1492542 0 0 1 0,2.29846 z"
     fill="#6c63ff"
     id="path34"
     style="stroke-width:0.747313" />
  <path
     d="M 371.84044,157.14623 H 336.8877 a 1.233985,1.1492542 0 1 1 0,-2.29846 h 34.95277 a 1.233985,1.1492542 0 0 1 0,2.29846 z"
     fill="#6c63ff"
     id="path36"
     style="stroke-width:0.747313" />
  <path
     d="M 371.84044,165.2847 H 336.8877 a 1.233985,1.1492542 0 1 1 0,-2.29847 h 34.95277 a 1.233985,1.1492542 0 0 1 0,2.29847 z"
     fill="#6c63ff"
     id="path38"
     style="stroke-width:0.747313" />
  <path
     d="M 371.84044,173.42318 H 336.8877 a 1.2339859,1.149255 0 1 1 0,-2.29851 h 34.95277 a 1.2339859,1.149255 0 0 1 0,2.29851 z"
     fill="#6c63ff"
     id="path40"
     style="stroke-width:0.747313" />
  <path
     d="m 558.07003,223.5467 a 2.47075,2.3010976 0 0 1 2.46792,2.29846 v 49.80793 a 2.4707577,2.3011048 0 0 1 -2.46792,2.29846 h -52.38782 a 2.4707577,2.3011048 0 0 1 -2.46792,-2.29846 V 225.8452 a 2.47075,2.3010976 0 0 1 2.46792,-2.29847 h 52.38782 m 0,-2.29846 h -52.38782 a 4.9359245,4.5970025 0 0 0 -4.93592,4.597 v 49.80793 a 4.9359245,4.5970025 0 0 0 4.93592,4.597 h 52.38782 a 4.9359322,4.5970097 0 0 0 4.93592,-4.597 v -49.808 a 4.9359245,4.5970025 0 0 0 -4.93592,-4.597 z"
     fill="#6c63ff"
     id="path42"
     style="stroke-width:0.747313" />
  <path
     d="M 549.89867,236.63904 H 514.9459 a 1.233985,1.1492542 0 1 1 0,-2.29846 h 34.95277 a 1.233985,1.1492542 0 0 1 0,2.29846 z"
     fill="#6c63ff"
     id="path44"
     style="stroke-width:0.747313" />
  <path
     d="M 549.89867,244.77751 H 514.9459 a 1.2339859,1.149255 0 0 1 0,-2.29851 h 34.95277 a 1.2339859,1.149255 0 0 1 0,2.29851 z"
     fill="#6c63ff"
     id="path46"
     style="stroke-width:0.747313" />
  <path
     d="M 549.89867,252.91542 H 514.9459 a 1.2339772,1.149247 0 1 1 0,-2.29847 h 34.95277 a 1.233985,1.1492542 0 0 1 0,2.29847 z"
     fill="#6c63ff"
     id="path48"
     style="stroke-width:0.747313" />
  <path
     d="M 549.89867,261.05388 H 514.9459 a 1.233985,1.1492542 0 1 1 0,-2.29846 h 34.95277 a 1.233985,1.1492542 0 0 1 0,2.29846 z"
     fill="#6c63ff"
     id="path50"
     style="stroke-width:0.747313" />
  <path
     d="M 549.89867,269.19235 H 514.9459 a 1.233985,1.1492542 0 1 1 0,-2.29847 h 34.95277 a 1.233985,1.1492542 0 0 1 0,2.29847 z"
     fill="#6c63ff"
     id="path52"
     style="stroke-width:0.747313" />
  <path
     d="m 291.23369,184.48095 h -53.75953 a 5.4900806,5.1131078 0 0 1 -5.48363,-5.1071 V 143.5473 a 5.4902044,5.1132232 0 0 1 5.48363,-5.10766 h 53.75953 a 5.4902974,5.1133097 0 0 1 5.48423,5.10766 v 35.82655 a 5.4902044,5.1132232 0 0 1 -5.48423,5.1071 z m -53.75953,-43.74281 a 3.019408,2.8120823 0 0 0 -3.01567,2.80916 v 35.82655 a 3.0188969,2.8116064 0 0 0 3.01567,2.80859 h 53.75953 a 3.019408,2.8120823 0 0 0 3.01626,-2.80859 V 143.5473 a 3.0199191,2.8125583 0 0 0 -3.01626,-2.80916 z"
     fill="#e6e6e6"
     id="path54"
     style="stroke-width:0.747313" />
  <path
     d="m 281.83063,154.47135 h -34.95279 a 1.233985,1.1492542 0 0 1 0,-2.29846 h 34.95279 a 1.233985,1.1492542 0 1 1 0,2.29846 z"
     fill="#6c63ff"
     id="path56"
     style="stroke-width:0.747313" />
  <path
     d="m 281.83063,162.60982 h -34.95279 a 1.233985,1.1492542 0 0 1 0,-2.29846 h 34.95279 a 1.233985,1.1492542 0 1 1 0,2.29846 z"
     fill="#6c63ff"
     id="path58"
     style="stroke-width:0.747313" />
  <path
     d="m 281.83063,170.74773 h -34.95279 a 1.233985,1.1492542 0 0 1 0,-2.29846 h 34.95279 a 1.233985,1.1492542 0 1 1 0,2.29846 z"
     fill="#6c63ff"
     id="path60"
     style="stroke-width:0.747313" />
  <path
     d="m 469.6167,204.33355 -51.63222,-13.94524 a 5.4900728,5.1131006 0 0 1 -3.73931,-6.32746 L 424.95945,149.652 a 5.4902044,5.1132232 0 0 1 6.79412,-3.4831 l 51.63222,13.94524 a 5.4902974,5.1133097 0 0 1 3.73971,6.32815 l -10.71427,34.40886 a 5.4902044,5.1132232 0 0 1 -6.79453,3.4824 z m -38.55052,-55.9571 a 3.0194003,2.8120751 0 0 0 -3.73643,1.91573 l -10.71425,34.40887 a 3.0188969,2.8116064 0 0 0 2.05639,3.47972 l 51.63222,13.94523 a 3.0194158,2.8120896 0 0 0 3.73684,-1.91504 l 10.71428,-34.40886 a 3.0199346,2.8125728 0 0 0 -2.0568,-3.48042 z"
     fill="#e6e6e6"
     id="path62"
     style="stroke-width:0.747313" />
  <path
     d="m 469.56035,173.0723 -33.56964,-9.06675 a 1.233985,1.1492542 0 0 1 0.68738,-2.20755 l 33.56963,9.06676 a 1.2339799,1.1492495 0 1 1 -0.68739,2.20754 z"
     fill="#6c63ff"
     id="path64"
     style="stroke-width:0.747313" />
  <path
     d="m 467.12647,180.88873 -33.56965,-9.06676 a 1.2339789,1.1492485 0 1 1 0.68738,-2.20754 l 33.56967,9.06675 a 1.233985,1.1492542 0 0 1 -0.68738,2.20755 z"
     fill="#6c63ff"
     id="path66"
     style="stroke-width:0.747313" />
  <path
     d="m 464.69275,188.7046 -33.56965,-9.06675 a 1.233985,1.1492542 0 0 1 0.68739,-2.20755 l 33.56965,9.06676 a 1.2339789,1.1492485 0 0 1 -0.68739,2.20754 z"
     fill="#6c63ff"
     id="path68"
     style="stroke-width:0.747313" />
  <rect
     x="156.10589"
     y="607.77534"
     width="699.3125"
     height="3"
     fill="#e6e6e6"
     id="rect70" />
  <polygon
     points="558.285,552.973 562.14,603.085 448.421,603.085 452.276,552.973 "
     fill="#e6e6e6"
     id="polygon72"
     transform="matrix(0.79850012,0,0,0.79814447,55.791238,46.452586)" />
  <rect
     x="409.23837"
     y="523.18701"
     width="101.57755"
     height="9.2302217"
     fill="#e6e6e6"
     id="rect74"
     style="stroke-width:0.798323" />
  <path
     d="M 633.17064,230.12788 H 286.11407 a 9.2343185,9.2302056 0 0 0 -9.23432,9.23021 v 0 211.52561 H 642.40498 V 239.35809 a 9.2343105,9.2301976 0 0 0 -9.23431,-9.23021 z"
     fill="#3f3d56"
     id="path76"
     style="stroke-width:0.798323;fill:#000080" />
  <path
     d="m 276.87975,450.8837 v 34.61328 a 9.2343105,9.2301976 0 0 0 9.23432,9.2302 h 347.05657 a 9.2343266,9.2302135 0 0 0 9.23434,-9.2302 v 0 -34.61328 z"
     fill="#e6e6e6"
     id="path78"
     style="stroke-width:0.798323" />
  <rect
     x="295.34839"
     y="249.35748"
     width="329.35748"
     height="184.60419"
     fill="#e6e6e6"
     id="rect80"
     style="stroke-width:0.798323" />
  <ellipse
     cx="460.02713"
     cy="472.42084"
     fill="#3f3d56"
     id="circle82"
     rx="9.2343273"
     ry="9.2302141"
     style="stroke-width:0.798323" />
  <ellipse
     cx="305.61786"
     cy="255.40309"
     fill="#ffffff"
     id="circle84"
     rx="1.7524363"
     ry="1.7516557"
     style="stroke-width:0.798323" />
  <ellipse
     cx="312.26968"
     cy="255.40309"
     fill="#ffffff"
     id="circle86"
     rx="1.7524363"
     ry="1.7516557"
     style="stroke-width:0.798323" />
  <ellipse
     cx="318.92148"
     cy="255.40309"
     fill="#ffffff"
     id="circle88"
     rx="1.7524363"
     ry="1.7516557"
     style="stroke-width:0.798323" />
  <rect
     x="303.86542"
     y="261.35516"
     width="311.34805"
     height="155.03723"
     fill="#ffffff"
     id="rect90"
     style="stroke-width:0.798323" />
  <path
     d="m 324.56174,284.93718 a 1.1017146,1.1012239 0 0 0 -1.10067,1.10018 v 55.61134 a 1.1017146,1.1012239 0 0 0 1.10067,1.10017 h 64.25075 a 1.1017146,1.1012239 0 0 0 1.10067,-1.10017 v -55.61134 a 1.1017146,1.1012239 0 0 0 -1.10067,-1.10018 z"
     fill="#e6e6e6"
     id="path92"
     style="stroke-width:0.798323" />
  <path
     d="m 427.72456,285.11606 a 1.1018024,1.1013117 0 0 0 -1.10106,1.10018 v 55.43246 a 1.1018024,1.1013117 0 0 0 1.10106,1.10017 h 64.04609 a 1.1016347,1.1011441 0 0 0 1.10029,-1.10017 v -55.43246 a 1.1016347,1.1011441 0 0 0 -1.10029,-1.10018 z"
     fill="#e6e6e6"
     id="path94"
     style="stroke-width:0.798323" />
  <path
     d="m 529.80547,284.53499 a 1.1016347,1.1011441 0 0 0 -1.10028,1.10017 v 56.01354 a 1.1016268,1.1011361 0 0 0 1.10028,1.10017 h 64.71204 a 1.1016268,1.1011361 0 0 0 1.10029,-1.10017 v -56.01354 a 1.1016347,1.1011441 0 0 0 -1.10029,-1.10017 z"
     fill="#e6e6e6"
     id="path96"
     style="stroke-width:0.798323" />
  <path
     d="m 325.73644,370.27629 a 2.2756136,2.2746 0 0 0 0,4.5492 h 60.40841 a 2.2756136,2.2746 0 0 0 0,-4.5492 z"
     fill="#e6e6e6"
     id="path98"
     style="stroke-width:0.798323" />
  <path
     d="m 325.73644,381.09566 a 2.2758051,2.2747915 0 0 0 0,4.54958 h 27.19852 a 2.2758051,2.2747915 0 0 0 0,-4.54958 z"
     fill="#6c63ff"
     id="path100"
     style="stroke-width:0.798323" />
  <path
     d="m 430.00777,370.27629 a 2.2756136,2.2746 0 0 0 0,4.5492 h 60.4084 a 2.2756136,2.2746 0 0 0 0,-4.5492 z"
     fill="#e6e6e6"
     id="path102"
     style="stroke-width:0.798323" />
  <path
     d="m 430.00777,381.09566 a 2.2758051,2.2747915 0 0 0 0,4.54958 h 27.19891 a 2.2758051,2.2747915 0 0 0 0,-4.54958 z"
     fill="#6c63ff"
     id="path104"
     style="stroke-width:0.798323" />
  <path
     d="m 531.67305,370.27629 a 2.2756136,2.2746 0 0 0 0,4.5492 h 60.40841 a 2.2756136,2.2746 0 0 0 0,-4.5492 z"
     fill="#e6e6e6"
     id="path106"
     style="stroke-width:0.798323" />
  <path
     d="m 325.73644,359.10227 a 2.2756136,2.2746 0 0 0 0,4.54919 h 60.40841 a 2.2756136,2.2746 0 0 0 0,-4.54919 z"
     fill="#e6e6e6"
     id="path108"
     style="stroke-width:0.798323" />
  <path
     d="m 430.00777,359.10227 a 2.2756136,2.2746 0 0 0 0,4.54919 h 60.4084 a 2.2756136,2.2746 0 0 0 0,-4.54919 z"
     fill="#e6e6e6"
     id="path110"
     style="stroke-width:0.798323" />
  <path
     d="m 531.67305,359.10227 a 2.2756136,2.2746 0 0 0 0,4.54919 h 60.40841 a 2.2756136,2.2746 0 0 0 0,-4.54919 z"
     fill="#e6e6e6"
     id="path112"
     style="stroke-width:0.798323" />
  <path
     d="m 531.67305,381.09566 a 2.2758051,2.2747915 0 0 0 0,4.54958 h 27.19817 a 2.2758051,2.2747915 0 0 0 0,-4.54958 z"
     fill="#6c63ff"
     id="path114"
     style="stroke-width:0.798323" />
</svg>
